<svg aria-hidden="true" style="width:0;height:0;position:absolute;overflow:hidden" xmlns="http://www.w3.org/2000/svg"><defs><symbol id="icon-arrow-big-right" viewBox="0 0 73 32"><path fill="none" stroke="#c0b7e8" style="stroke:var(--color1,#c0b7e8)" stroke-linejoin="round" stroke-linecap="round" stroke-width=".96" d="M63.63 16H50.296m13.334 0-5.333 5.334M63.63 16l-5.333-5.334"/><path fill="none" stroke="#c0b7e8" style="stroke:var(--color1,#c0b7e8)" stroke-width=".96" d="M50.403 16H0"/></symbol><symbol id="icon-arrow-small-right" viewBox="0 0 32 32"><path fill="none" stroke="#c0b7e8" style="stroke:var(--color1,#c0b7e8)" stroke-linejoin="round" stroke-linecap="round" stroke-width=".96" d="M22.667 16H9.334m13.333 0-5.333 5.333M22.667 16l-5.333-5.333"/></symbol><symbol id="icon-chevron-circle-left" viewBox="0 0 32 32"><path fill="none" stroke="#fff" style="stroke:var(--color2,#fff)" stroke-linejoin="round" stroke-linecap="round" stroke-width="1.6" d="M18.667 22.667 12 16l6.667-6.667M4 16c0 6.627 5.373 12 12 12s12-5.373 12-12S22.627 4 16 4 4 9.373 4 16z"/></symbol><symbol id="icon-chevron-circle-right" viewBox="0 0 32 32"><path fill="none" stroke="#fff" style="stroke:var(--color2,#fff)" stroke-linejoin="round" stroke-linecap="round" stroke-width="1.6" d="M13.333 22.667 20 16l-6.667-6.667M28 16c0 6.627-5.373 12-12 12S4 22.627 4 16 9.373 4 16 4s12 5.373 12 12z"/></symbol><symbol id="icon-chevron-small-down" viewBox="0 0 32 32"><path fill="none" stroke="#433d60" style="stroke:var(--color3,#433d60)" stroke-linejoin="round" stroke-linecap="round" stroke-width="1.6" d="M9.333 13.333 16 20l6.667-6.667"/></symbol><symbol id="icon-chevron-small-left" viewBox="0 0 32 32"><path fill="none" stroke="#433d60" style="stroke:var(--color3,#433d60)" stroke-linejoin="round" stroke-linecap="round" stroke-width="2.526" d="m18.674 22.675-6.669-6.669 6.669-6.669"/></symbol><symbol id="icon-chevron-small-right" viewBox="0 0 32 32"><path fill="none" stroke="#433d60" style="stroke:var(--color3,#433d60)" stroke-linejoin="round" stroke-linecap="round" stroke-width="2.526" d="m13.338 22.675 6.669-6.669-6.669-6.669"/></symbol><symbol id="icon-facebook" viewBox="0 0 32 32"><path fill="#c0b7e8" style="fill:var(--color1,#c0b7e8)" d="M0 16.002c0 8.838 7.164 16.002 16.002 16.002s16.002-7.164 16.002-16.002S24.84 0 16.002 0 0 7.164 0 16.002zm16.002-8.001c4.4 0 8.001 3.6 8.001 8.001 0 4-2.9 7.401-6.901 8.001v-5.701h1.9l.4-2.3h-2.2v-1.5c0-.6.3-1.2 1.3-1.2h1v-2s-.9-.2-1.8-.2c-1.8 0-3 1.1-3 3.1v1.8h-2v2.3h2v5.601c-3.8-.6-6.701-3.9-6.701-7.901 0-4.4 3.6-8.001 8.001-8.001z"/></symbol><symbol id="icon-instagram" viewBox="0 0 32 32"><path fill="#c0b7e8" style="fill:var(--color1,#c0b7e8)" d="M16.002 18.802c-1.5 0-2.8-1.2-2.8-2.8 0-1.5 1.2-2.8 2.8-2.8 1.5 0 2.8 1.2 2.8 2.8 0 1.5-1.3 2.8-2.8 2.8z"/><path fill="#c0b7e8" style="fill:var(--color1,#c0b7e8)" d="M19.402 9.201h-6.801c-.8.1-1.2.2-1.5.3-.4.1-.7.3-1 .6-.237.237-.35.475-.485.762-.036.075-.073.155-.115.238a3.896 3.896 0 0 1-.064.186l.012-.038a3.47 3.47 0 0 0-.248 1.301v.054-.003 6.801c.1.8.2 1.2.3 1.5.1.4.3.7.6 1 .237.237.475.35.762.485.075.036.155.073.238.115.046.015.095.033.148.052a3.47 3.47 0 0 0 1.301.248h.054-.003 6.801c.8-.1 1.2-.2 1.5-.3.4-.1.7-.3 1-.6.237-.237.35-.475.485-.762.036-.075.073-.155.115-.238.015-.046.033-.095.052-.147a3.47 3.47 0 0 0 .248-1.301v-.055.003-6.801c-.1-.8-.2-1.2-.3-1.5-.1-.4-.3-.7-.6-1-.237-.237-.475-.35-.762-.485a6.776 6.776 0 0 1-.303-.145l.065.03c-.046-.015-.095-.033-.147-.052a3.47 3.47 0 0 0-1.301-.248h-.055.003zm-3.4 2.5c-2.4 0-4.3 1.9-4.3 4.3s1.9 4.3 4.3 4.3 4.3-1.9 4.3-4.3-1.9-4.3-4.3-4.3zm5.4-.1a1 1 0 0 1-2 0 1 1 0 0 1 2 0z"/><path fill="#c0b7e8" style="fill:var(--color1,#c0b7e8)" d="M0 16.002c0 8.838 7.164 16.002 16.002 16.002s16.002-7.164 16.002-16.002S24.84 0 16.002 0 0 7.164 0 16.002zm12.601-8.301h6.801c.9.1 1.5.2 2 .4.6.3 1 .5 1.5 1s.8 1 1 1.5c.2.5.4 1.1.4 2v6.801c-.1.9-.2 1.5-.4 2-.3.6-.5 1-1 1.5s-1 .8-1.5 1c-.5.2-1.1.4-2 .4h-6.801c-.9-.1-1.5-.2-2-.4-.6-.3-1-.5-1.5-1s-.8-1-1-1.5c-.2-.5-.4-1.1-.4-2v-6.801c.1-.9.2-1.5.4-2 .3-.6.5-1 1-1.5s1-.8 1.5-1c.5-.2 1.1-.4 2-.4z"/></symbol><symbol id="icon-linkedin" viewBox="0 0 32 32"><path fill="#c0b7e8" style="fill:var(--color1,#c0b7e8)" d="M0 16.002C0 7.164 7.164 0 16.002 0s16.002 7.164 16.002 16.002-7.164 16.002-16.002 16.002S0 24.84 0 16.002zm8.201-2.701v10.701h3.4V13.301h-3.4zm-.2-3.4c0 1.1.8 1.9 1.9 1.9s1.9-.8 1.9-1.9c0-1.1-.8-1.9-1.9-1.9-1 0-1.9.8-1.9 1.9zm12.601 14.102h3.2v-6.601c0-3.3-2-4.4-3.9-4.4-1.7 0-2.9 1.1-3.2 1.8v-1.5h-3.2v10.701h3.4v-5.701c0-1.5 1-2.3 2-2.3s1.7.5 1.7 2.2v5.801z"/></symbol><symbol id="icon-location" viewBox="0 0 21 32"><path fill="#c0b7e8" style="fill:var(--color1,#c0b7e8)" d="M10.668.423c5.729 0 10.373 4.644 10.373 10.373 0 1.732-.424 3.364-1.175 4.8l-9.198 15.945-8.985-15.558a10.192 10.192 0 0 1-1.388-5.168v-.021.001C.295 5.066 4.939.422 10.668.422zm0 2.964a7.409 7.409 0 0 0-7.409 7.409c0 1.177.271 2.306.785 3.325l.249.455 6.375 11.039 6.42-11.116a7.263 7.263 0 0 0 .989-3.682v-.022.001a7.409 7.409 0 0 0-7.409-7.409zm0 2.964a4.445 4.445 0 1 1 0 8.89 4.445 4.445 0 1 1 0-8.89zm0 2.963a1.483 1.483 0 0 0 0 2.964 1.483 1.483 0 0 0 0-2.964z"/></symbol><symbol id="icon-logo" viewBox="0 0 31 32"><path d="M28.713 11.095c.359 2.076-1.845 1.523-1.845 1.523-.922-2.599-2.398-2.357-2.398-2.357 1.156.844 1.243 1.562 1.243 1.562-3.078-2.182-7.263-.427-8.856.397-.893-1.261-2.699-4.083-2.058-5.363.845-1.678 2.563-.718 2.563-.718 3.476-.058 3.282-1.299 3.282-1.299-.922.718-3.641 0-3.641 0 2.36 0 3.36-.96 3.36-.96-1.757.436-3.719-1.436-3.719-1.436C15.926-1.232 12.605.33 12.605.33c2.078-.359 1.525 1.843 1.525 1.843-2.602.921-2.36 2.395-2.36 2.395.845-1.154 1.563-1.241 1.563-1.241-2.379 3.346-.087 8.001.592 9.214-1.243.863-4.156 2.764-5.467 2.105-1.68-.844-.719-2.56-.719-2.56C7.7 8.614 6.457 8.808 6.457 8.808c.719.921 0 3.637 0 3.637 0-2.357-.961-3.356-.961-3.356.437 1.756-1.437 3.715-1.437 3.715-3.68.718-2.117 4.035-2.117 4.035-.359-2.076 1.845-1.523 1.845-1.523.922 2.599 2.398 2.357 2.398 2.357-1.156-.844-1.243-1.562-1.243-1.562 3.253 2.308 7.748.214 9.108-.524.913 1.309 2.612 4.005 1.981 5.256-.845 1.678-2.563.718-2.563.718-3.476.039-3.282 1.28-3.282 1.28.922-.718 3.641 0 3.641 0-2.36 0-3.36.96-3.36.96 1.757-.436 3.719 1.436 3.719 1.436.718 3.676 4.039 2.114 4.039 2.114-2.078.359-1.525-1.843-1.525-1.843 2.602-.922 2.36-2.396 2.36-2.396-.845 1.154-1.563 1.241-1.563 1.241 2.33-3.268.184-7.798-.544-9.126 1.32-.921 3.991-2.57 5.224-1.949 1.68.844.719 2.56.719 2.56.039 3.472 1.282 3.278 1.282 3.278-.719-.921 0-3.637 0-3.637 0 2.357.961 3.356.961 3.356-.437-1.756 1.437-3.715 1.437-3.715 3.7-.708 2.136-4.025 2.136-4.025z"/></symbol><symbol id="icon-mail" viewBox="0 0 32 32"><path fill="none" stroke="#c0b7e8" style="stroke:var(--color1,#c0b7e8)" stroke-linejoin="round" stroke-linecap="round" stroke-width="2.954" d="M4.391 7.057c.241-.241.575-.391.943-.391h21.333c.368 0 .701.149.943.391m-23.219 0A1.331 1.331 0 0 0 4 8v16c0 .736.597 1.333 1.333 1.333h21.333c.736 0 1.333-.597 1.333-1.333V8c0-.368-.149-.702-.391-.943m-23.217 0 9.724 9.724a2.667 2.667 0 0 0 3.771 0l9.724-9.724"/></symbol><symbol id="icon-phone" viewBox="0 0 32 32"><path fill="none" stroke="#c0b7e8" style="stroke:var(--color1,#c0b7e8)" stroke-linejoin="round" stroke-linecap="round" stroke-width="3.254" d="M19.333 8.667c.983.192 1.959.625 2.667 1.333s1.142 1.684 1.333 2.667M20 4c2.042.227 3.88 1.215 5.333 2.667S27.77 9.959 28 12m-.001 9.969v3.613c.006 1.381-1.236 2.534-2.631 2.409C13.333 28 3.999 18.58 4.009 6.626 3.883 5.239 5.031 4.002 6.41 4.001h3.62a2.413 2.413 0 0 1 1.597.582c1.262 1.084 2.074 4.761 1.762 6.223-.244 1.141-1.395 1.94-2.177 2.721a19.287 19.287 0 0 0 7.24 7.226c.782-.781 1.582-1.929 2.726-2.173 1.467-.312 5.169.501 6.248 1.772.383.451.586 1.026.571 1.617z"/></symbol><symbol id="icon-pinterest" viewBox="0 0 32 32"><path fill="#c0b7e8" style="fill:var(--color1,#c0b7e8)" d="M0 16c0 8.837 7.163 16 16 16s16-7.163 16-16S24.837 0 16 0 0 7.163 0 16zm8 0c0-4.4 3.6-8 8-8s8 3.6 7.9 7.6c0 4.4-3.6 8-8 8-.8 0-1.6-.1-2.3-.3.3-.5.6-1.1.8-1.7.1-.4.6-2.2.6-2.2.3.5 1.1 1 2 1 2.6 0 4.3-2.4 4.3-5.5 0-2.4-2-4.6-5.1-4.6-3.8 0-5.7 2.7-5.7 5 0 1.4.5 2.6 1.6 3.1.2.1.3 0 .4-.2.1-.1.2-.5.2-.6.071-.141.041-.183-.017-.266a1.086 1.086 0 0 1-.083-.134c-.3-.4-.5-.9-.5-1.6 0-2 1.5-3.8 3.9-3.8 2.1 0 3.3 1.3 3.3 3.1 0 2.4-1 4.3-2.5 4.3-.9 0-1.5-.7-1.3-1.5.084-.417.219-.852.349-1.268.181-.58.351-1.124.351-1.532 0-.7-.4-1.2-1.1-1.2-.8 0-1.5.9-1.5 2.1 0 .8.3 1.3.3 1.3s-.8 3.7-1 4.4c-.1.6-.1 1.2-.1 1.8C10 22.1 8 19.3 8 16z"/></symbol><symbol id="icon-twitter" viewBox="0 0 32 32"><path fill="#c0b7e8" style="fill:var(--color1,#c0b7e8)" d="M0 16c0 8.837 7.163 16 16 16s16-7.163 16-16S24.837 0 16 0 0 7.163 0 16zm22.1-4.5c.7-.1 1.3-.2 1.9-.5-.4.7-1 1.3-1.7 1.7.2 4.7-3.2 9.8-9.3 9.8-1.8 0-3.5-.6-5-1.5 1.7.2 3.5-.3 4.7-1.2-1.5 0-2.7-1-3.1-2.3.5.1 1 0 1.5-.1-1.5-.4-2.6-1.8-2.6-3.3.5.2 1 .4 1.5.4-1.4-1-1.9-2.9-1-4.4 1.7 2 4.1 3.3 6.8 3.4-.5-2 1.1-4 3.2-4 .9 0 1.8.4 2.4 1 .8-.2 1.5-.4 2.1-.8-.2.8-.7 1.4-1.4 1.8z"/></symbol><symbol id="icon-youtube" viewBox="0 0 32 32"><path fill="#c0b7e8" style="fill:var(--color1,#c0b7e8)" d="m18.6 16-4.2-2.4v4.8l4.2-2.4z"/><path fill="#c0b7e8" style="fill:var(--color1,#c0b7e8)" d="M0 16c0 8.837 7.163 16 16 16s16-7.163 16-16S24.837 0 16 0 0 7.163 0 16zm22.2-5.3c.7.2 1.2.7 1.4 1.4.4 1.3.4 3.9.4 3.9s0 2.6-.3 3.9c-.2.7-.7 1.2-1.4 1.4-1.3.3-6.3.3-6.3.3s-5.1 0-6.3-.3c-.7-.2-1.2-.7-1.4-1.4C8 18.6 8 16 8 16s0-2.6.2-3.9c.2-.7.7-1.2 1.4-1.4 1.3-.3 6.3-.3 6.3-.3s5.1 0 6.3.3z"/></symbol><symbol id="icon-hydra" viewBox="0 0 53 32"><path d="M0 .001h1.614v19.067h4.822V.001h1.616v32.004H6.436V20.673H1.614v11.332H0V.001zM19.991.001l-4.003 20.673v11.332h-1.615V20.674L10.347.001h1.478l3.366 17.235L18.533.001h1.456zM27.132 32.006h-4.845V.002h4.822a3.18 3.18 0 0 1 3.207 3.189v25.604c.022 1.741-1.411 3.212-3.185 3.212zm-3.23-30.399V30.4h3.207c.863 0 1.614-.724 1.614-1.606V3.19c0-.86-.728-1.606-1.614-1.606h-3.207v.022zM40.914 32.006h-1.66l-2.843-11.332h-1.933v11.332h-1.614V.002h4.822a3.18 3.18 0 0 1 3.206 3.189v14.272c0 1.606-1.251 2.962-2.843 3.143l2.866 11.4zm-6.436-12.938h3.206c.864 0 1.615-.724 1.615-1.606V3.19c0-.86-.728-1.606-1.614-1.606h-3.207v17.483zM45.781 20.674l-1.114 11.332h-1.456L46.441.002h3.207l3.206 32.004h-1.456l-1.115-11.332H45.78zm2.57-19.067h-.637l-1.751 17.461h4.139L48.351 1.607z"/></symbol><symbol id="icon-menu-burg" viewBox="0 0 41 32"><path d="M2.287 0h36.059a2.287 2.287 0 0 1 0 4.574H2.287a2.287 2.287 0 0 1 0-4.574zM2.287 27.44h36.059a2.287 2.287 0 0 1 0 4.574H2.287a2.287 2.287 0 0 1 0-4.574zM13.368 13.72h24.978a2.287 2.287 0 1 1 0 4.573H13.368a2.287 2.287 0 0 1 0-4.574z"/></symbol></defs></svg>