<svg aria-hidden="true" style="position: absolute; width: 0; height: 0; overflow: hidden;" version="1.1" xmlns="http://www.w3.org/2000/svg" xmlns:xlink="http://www.w3.org/1999/xlink">
<defs>
<symbol id="icon-arrow-big-right" viewBox="0 0 73 32">
<path fill="none" stroke="#c0b7e8" style="stroke: var(--color1, #c0b7e8)" stroke-linejoin="round" stroke-linecap="round" stroke-miterlimit="4" stroke-width="0.96" d="M63.63 16h-13.334M63.63 16l-5.333 5.334M63.63 16l-5.333-5.334"></path>
<path fill="none" stroke="#c0b7e8" style="stroke: var(--color1, #c0b7e8)" stroke-linejoin="miter" stroke-linecap="butt" stroke-miterlimit="4" stroke-width="0.96" d="M50.403 16h-50.403"></path>
</symbol>
<symbol id="icon-arrow-small-right" viewBox="0 0 32 32">
<path fill="none" stroke="#c0b7e8" style="stroke: var(--color1, #c0b7e8)" stroke-linejoin="round" stroke-linecap="round" stroke-miterlimit="4" stroke-width="0.96" d="M22.667 16h-13.333M22.667 16l-5.333 5.333M22.667 16l-5.333-5.333"></path>
</symbol>
<symbol id="icon-chevron-circle-left" viewBox="0 0 32 32">
<path fill="none" stroke="#fff" style="stroke: var(--color2, #fff)" stroke-linejoin="round" stroke-linecap="round" stroke-miterlimit="4" stroke-width="1.6" d="M18.667 22.667l-6.667-6.667 6.667-6.667M4 16c0 6.627 5.373 12 12 12s12-5.373 12-12-5.373-12-12-12-12 5.373-12 12z"></path>
</symbol>
<symbol id="icon-chevron-circle-right" viewBox="0 0 32 32">
<path fill="none" stroke="#fff" style="stroke: var(--color2, #fff)" stroke-linejoin="round" stroke-linecap="round" stroke-miterlimit="4" stroke-width="1.6" d="M13.333 22.667l6.667-6.667-6.667-6.667M28 16c0 6.627-5.373 12-12 12s-12-5.373-12-12c0-6.627 5.373-12 12-12s12 5.373 12 12z"></path>
</symbol>
<symbol id="icon-chevron-small-down" viewBox="0 0 32 32">
<path fill="none" stroke="#433d60" style="stroke: var(--color3, #433d60)" stroke-linejoin="round" stroke-linecap="round" stroke-miterlimit="4" stroke-width="1.6" d="M9.333 13.333l6.667 6.667 6.667-6.667"></path>
</symbol>
<symbol id="icon-chevron-small-left" viewBox="0 0 32 32">
<path fill="none" stroke="#433d60" style="stroke: var(--color3, #433d60)" stroke-linejoin="round" stroke-linecap="round" stroke-miterlimit="4" stroke-width="2.5263" d="M18.674 22.675l-6.669-6.669 6.669-6.669"></path>
</symbol>
<symbol id="icon-chevron-small-right" viewBox="0 0 32 32">
<path fill="none" stroke="#433d60" style="stroke: var(--color3, #433d60)" stroke-linejoin="round" stroke-linecap="round" stroke-miterlimit="4" stroke-width="2.5263" d="M13.338 22.675l6.669-6.669-6.669-6.669"></path>
</symbol>
<symbol id="icon-facebook" viewBox="0 0 32 32">
<path fill="#c0b7e8" style="fill: var(--color1, #c0b7e8)" d="M0 16.002c0 8.838 7.164 16.002 16.002 16.002s16.002-7.164 16.002-16.002c0-8.838-7.164-16.002-16.002-16.002s-16.002 7.164-16.002 16.002zM16.002 8.001c4.4 0 8.001 3.6 8.001 8.001 0 4-2.9 7.401-6.901 8.001v-5.701h1.9l0.4-2.3h-2.2v-1.5c0-0.6 0.3-1.2 1.3-1.2h1v-2s-0.9-0.2-1.8-0.2c-1.8 0-3 1.1-3 3.1v1.8h-2v2.3h2v5.601c-3.8-0.6-6.701-3.9-6.701-7.901 0-4.4 3.6-8.001 8.001-8.001z"></path>
</symbol>
<symbol id="icon-instagram" viewBox="0 0 32 32">
<path fill="#c0b7e8" style="fill: var(--color1, #c0b7e8)" d="M16.002 18.802c-1.5 0-2.8-1.2-2.8-2.8 0-1.5 1.2-2.8 2.8-2.8 1.5 0 2.8 1.2 2.8 2.8 0 1.5-1.3 2.8-2.8 2.8z"></path>
<path fill="#c0b7e8" style="fill: var(--color1, #c0b7e8)" d="M19.402 9.201h-6.801c-0.8 0.1-1.2 0.2-1.5 0.3-0.4 0.1-0.7 0.3-1 0.6-0.237 0.237-0.35 0.475-0.485 0.762-0.036 0.075-0.073 0.155-0.115 0.238-0.028 0.088-0.046 0.137-0.064 0.186l0.012-0.038c-0.157 0.385-0.248 0.832-0.248 1.301 0 0.018 0 0.036 0 0.054l-0-0.003v6.801c0.1 0.8 0.2 1.2 0.3 1.5 0.1 0.4 0.3 0.7 0.6 1 0.237 0.237 0.475 0.35 0.762 0.485 0.075 0.036 0.155 0.073 0.238 0.115 0.046 0.015 0.095 0.033 0.148 0.052 0.385 0.157 0.832 0.248 1.301 0.248 0.018 0 0.036-0 0.054-0l-0.003 0h6.801c0.8-0.1 1.2-0.2 1.5-0.3 0.4-0.1 0.7-0.3 1-0.6 0.237-0.237 0.35-0.475 0.485-0.762 0.036-0.075 0.073-0.155 0.115-0.238 0.015-0.046 0.033-0.095 0.052-0.147 0.157-0.385 0.248-0.832 0.248-1.301 0-0.018-0-0.037-0-0.055l0 0.003v-6.801c-0.1-0.8-0.2-1.2-0.3-1.5-0.1-0.4-0.3-0.7-0.6-1-0.237-0.237-0.475-0.35-0.762-0.485-0.148-0.067-0.226-0.106-0.303-0.145l0.065 0.030c-0.046-0.015-0.095-0.033-0.147-0.052-0.385-0.157-0.832-0.248-1.301-0.248-0.018 0-0.037 0-0.055 0l0.003-0zM16.002 11.701c-2.4 0-4.3 1.9-4.3 4.3s1.9 4.3 4.3 4.3 4.3-1.9 4.3-4.3-1.9-4.3-4.3-4.3zM21.402 11.601c0 0.552-0.448 1-1 1s-1-0.448-1-1v0c0-0.552 0.448-1 1-1s1 0.448 1 1v0z"></path>
<path fill="#c0b7e8" style="fill: var(--color1, #c0b7e8)" d="M0 16.002c0 8.838 7.164 16.002 16.002 16.002s16.002-7.164 16.002-16.002c0-8.838-7.164-16.002-16.002-16.002s-16.002 7.164-16.002 16.002zM12.601 7.701h6.801c0.9 0.1 1.5 0.2 2 0.4 0.6 0.3 1 0.5 1.5 1s0.8 1 1 1.5c0.2 0.5 0.4 1.1 0.4 2v6.801c-0.1 0.9-0.2 1.5-0.4 2-0.3 0.6-0.5 1-1 1.5s-1 0.8-1.5 1c-0.5 0.2-1.1 0.4-2 0.4h-6.801c-0.9-0.1-1.5-0.2-2-0.4-0.6-0.3-1-0.5-1.5-1s-0.8-1-1-1.5c-0.2-0.5-0.4-1.1-0.4-2v-6.801c0.1-0.9 0.2-1.5 0.4-2 0.3-0.6 0.5-1 1-1.5s1-0.8 1.5-1c0.5-0.2 1.1-0.4 2-0.4z"></path>
</symbol>
<symbol id="icon-linkedin" viewBox="0 0 32 32">
<path fill="#c0b7e8" style="fill: var(--color1, #c0b7e8)" d="M0 16.002c0-8.838 7.164-16.002 16.002-16.002s16.002 7.164 16.002 16.002-7.164 16.002-16.002 16.002-16.002-7.164-16.002-16.002zM8.201 13.301v10.701h3.4v-10.701h-3.4zM8.001 9.901c0 1.1 0.8 1.9 1.9 1.9s1.9-0.8 1.9-1.9c0-1.1-0.8-1.9-1.9-1.9-1 0-1.9 0.8-1.9 1.9zM20.602 24.003h3.2v-6.601c0-3.3-2-4.4-3.9-4.4-1.7 0-2.9 1.1-3.2 1.8v-1.5h-3.2v10.701h3.4v-5.701c0-1.5 1-2.3 2-2.3s1.7 0.5 1.7 2.2v5.801z"></path>
</symbol>
<symbol id="icon-location" viewBox="0 0 21 32">
<path fill="#c0b7e8" style="fill: var(--color1, #c0b7e8)" d="M10.668 0.423c5.729 0 10.373 4.644 10.373 10.373 0 1.732-0.424 3.364-1.175 4.8l-9.198 15.945-8.985-15.558c-0.873-1.482-1.388-3.264-1.388-5.168 0-0.007 0-0.014 0-0.021v0.001c0-5.729 4.644-10.373 10.373-10.373zM10.668 3.387c-4.092 0-7.409 3.317-7.409 7.409 0 1.177 0.271 2.306 0.785 3.325l0.249 0.455 6.375 11.039 6.42-11.116c0.622-1.056 0.989-2.326 0.989-3.682 0-0.007 0-0.014-0-0.022v0.001c0-4.092-3.317-7.409-7.409-7.409zM10.668 6.351c2.455 0 4.445 1.99 4.445 4.445s-1.99 4.445-4.445 4.445v0c-2.455 0-4.445-1.99-4.445-4.445s1.99-4.445 4.445-4.445v0zM10.668 9.314c-0.818 0-1.482 0.664-1.482 1.482s0.664 1.482 1.482 1.482v0c0.818 0 1.482-0.664 1.482-1.482s-0.664-1.482-1.482-1.482v0z"></path>
</symbol>
<symbol id="icon-logo-1" viewBox="0 0 31 32">
<path d="M28.713 11.095c0.359 2.076-1.845 1.523-1.845 1.523-0.922-2.599-2.398-2.357-2.398-2.357 1.156 0.844 1.243 1.562 1.243 1.562-3.078-2.182-7.263-0.427-8.856 0.397-0.893-1.261-2.699-4.083-2.058-5.363 0.845-1.678 2.563-0.718 2.563-0.718 3.476-0.058 3.282-1.299 3.282-1.299-0.922 0.718-3.641 0-3.641 0 2.36 0 3.36-0.96 3.36-0.96-1.757 0.436-3.719-1.436-3.719-1.436-0.718-3.676-4.039-2.114-4.039-2.114 2.078-0.359 1.525 1.843 1.525 1.843-2.602 0.921-2.36 2.395-2.36 2.395 0.845-1.154 1.563-1.241 1.563-1.241-2.379 3.346-0.087 8.001 0.592 9.214-1.243 0.863-4.156 2.764-5.467 2.105-1.68-0.844-0.719-2.56-0.719-2.56-0.039-3.472-1.282-3.278-1.282-3.278 0.719 0.921 0 3.637 0 3.637 0-2.357-0.961-3.356-0.961-3.356 0.437 1.756-1.437 3.715-1.437 3.715-3.68 0.718-2.117 4.035-2.117 4.035-0.359-2.076 1.845-1.523 1.845-1.523 0.922 2.599 2.398 2.357 2.398 2.357-1.156-0.844-1.243-1.562-1.243-1.562 3.253 2.308 7.748 0.214 9.108-0.524 0.913 1.309 2.612 4.005 1.981 5.256-0.845 1.678-2.563 0.718-2.563 0.718-3.476 0.039-3.282 1.28-3.282 1.28 0.922-0.718 3.641 0 3.641 0-2.36 0-3.36 0.96-3.36 0.96 1.757-0.436 3.719 1.436 3.719 1.436 0.718 3.676 4.039 2.114 4.039 2.114-2.078 0.359-1.525-1.843-1.525-1.843 2.602-0.922 2.36-2.396 2.36-2.396-0.845 1.154-1.563 1.241-1.563 1.241 2.33-3.268 0.184-7.798-0.544-9.126 1.32-0.921 3.991-2.57 5.224-1.949 1.68 0.844 0.719 2.56 0.719 2.56 0.039 3.472 1.282 3.278 1.282 3.278-0.719-0.921 0-3.637 0-3.637 0 2.357 0.961 3.356 0.961 3.356-0.437-1.756 1.437-3.715 1.437-3.715 3.7-0.708 2.136-4.025 2.136-4.025z"></path>
</symbol>
<symbol id="icon-mail" viewBox="0 0 32 32">
<path fill="none" stroke="#c0b7e8" style="stroke: var(--color1, #c0b7e8)" stroke-linejoin="round" stroke-linecap="round" stroke-miterlimit="4" stroke-width="2.9538" d="M4.391 7.057c0.241-0.241 0.575-0.391 0.943-0.391h21.333c0.368 0 0.701 0.149 0.943 0.391M4.391 7.057c-0.241 0.241-0.391 0.575-0.391 0.943v16c0 0.736 0.597 1.333 1.333 1.333h21.333c0.736 0 1.333-0.597 1.333-1.333v-16c0-0.368-0.149-0.702-0.391-0.943M4.391 7.057l9.724 9.724c1.041 1.041 2.73 1.041 3.771 0l9.724-9.724"></path>
</symbol>
<symbol id="icon-phone-call" viewBox="0 0 32 32">
<path fill="none" stroke="#c0b7e8" style="stroke: var(--color1, #c0b7e8)" stroke-linejoin="round" stroke-linecap="round" stroke-miterlimit="4" stroke-width="3.2542" d="M19.333 8.667c0.983 0.192 1.959 0.625 2.667 1.333s1.142 1.684 1.333 2.667M20 4c2.042 0.227 3.88 1.215 5.333 2.667s2.437 3.292 2.667 5.333M27.999 21.969v3.613c0.006 1.381-1.236 2.534-2.631 2.409-12.035 0.009-21.369-9.411-21.359-21.365-0.126-1.387 1.022-2.624 2.401-2.625h3.62c0.586-0.006 1.153 0.201 1.597 0.582 1.262 1.084 2.074 4.761 1.762 6.223-0.244 1.141-1.395 1.94-2.177 2.721 1.718 3.015 4.219 5.512 7.24 7.226 0.782-0.781 1.582-1.929 2.726-2.173 1.467-0.312 5.169 0.501 6.248 1.772 0.383 0.451 0.586 1.026 0.571 1.617z"></path>
</symbol>
<symbol id="icon-pinterest" viewBox="0 0 32 32">
<path fill="#c0b7e8" style="fill: var(--color1, #c0b7e8)" d="M0 16c0 8.837 7.163 16 16 16s16-7.163 16-16c0-8.837-7.163-16-16-16s-16 7.163-16 16zM8 16c0-4.4 3.6-8 8-8s8 3.6 7.9 7.6c0 4.4-3.6 8-8 8-0.8 0-1.6-0.1-2.3-0.3 0.3-0.5 0.6-1.1 0.8-1.7 0.1-0.4 0.6-2.2 0.6-2.2 0.3 0.5 1.1 1 2 1 2.6 0 4.3-2.4 4.3-5.5 0-2.4-2-4.6-5.1-4.6-3.8 0-5.7 2.7-5.7 5 0 1.4 0.5 2.6 1.6 3.1 0.2 0.1 0.3 0 0.4-0.2 0.1-0.1 0.2-0.5 0.2-0.6 0.071-0.141 0.041-0.183-0.017-0.266-0.024-0.034-0.053-0.076-0.083-0.134-0.3-0.4-0.5-0.9-0.5-1.6 0-2 1.5-3.8 3.9-3.8 2.1 0 3.3 1.3 3.3 3.1 0 2.4-1 4.3-2.5 4.3-0.9 0-1.5-0.7-1.3-1.5 0.084-0.417 0.219-0.852 0.349-1.268 0.181-0.58 0.351-1.124 0.351-1.532 0-0.7-0.4-1.2-1.1-1.2-0.8 0-1.5 0.9-1.5 2.1 0 0.8 0.3 1.3 0.3 1.3s-0.8 3.7-1 4.4c-0.1 0.6-0.1 1.2-0.1 1.8-2.8-1.2-4.8-4-4.8-7.3z"></path>
</symbol>
<symbol id="icon-twitter" viewBox="0 0 32 32">
<path fill="#c0b7e8" style="fill: var(--color1, #c0b7e8)" d="M0 16c0 8.837 7.163 16 16 16s16-7.163 16-16c0-8.837-7.163-16-16-16s-16 7.163-16 16zM22.1 11.5c0.7-0.1 1.3-0.2 1.9-0.5-0.4 0.7-1 1.3-1.7 1.7 0.2 4.7-3.2 9.8-9.3 9.8-1.8 0-3.5-0.6-5-1.5 1.7 0.2 3.5-0.3 4.7-1.2-1.5 0-2.7-1-3.1-2.3 0.5 0.1 1 0 1.5-0.1-1.5-0.4-2.6-1.8-2.6-3.3 0.5 0.2 1 0.4 1.5 0.4-1.4-1-1.9-2.9-1-4.4 1.7 2 4.1 3.3 6.8 3.4-0.5-2 1.1-4 3.2-4 0.9 0 1.8 0.4 2.4 1 0.8-0.2 1.5-0.4 2.1-0.8-0.2 0.8-0.7 1.4-1.4 1.8z"></path>
</symbol>
<symbol id="icon-youtube" viewBox="0 0 32 32">
<path fill="#c0b7e8" style="fill: var(--color1, #c0b7e8)" d="M18.6 16l-4.2-2.4v4.8l4.2-2.4z"></path>
<path fill="#c0b7e8" style="fill: var(--color1, #c0b7e8)" d="M0 16c0 8.837 7.163 16 16 16s16-7.163 16-16c0-8.837-7.163-16-16-16s-16 7.163-16 16zM22.2 10.7c0.7 0.2 1.2 0.7 1.4 1.4 0.4 1.3 0.4 3.9 0.4 3.9s0 2.6-0.3 3.9c-0.2 0.7-0.7 1.2-1.4 1.4-1.3 0.3-6.3 0.3-6.3 0.3s-5.1 0-6.3-0.3c-0.7-0.2-1.2-0.7-1.4-1.4-0.3-1.3-0.3-3.9-0.3-3.9s0-2.6 0.2-3.9c0.2-0.7 0.7-1.2 1.4-1.4 1.3-0.3 6.3-0.3 6.3-0.3s5.1 0 6.3 0.3z"></path>
</symbol>
<symbol id="icon-hydra" viewBox="0 0 53 32">
<path d="M0 0.001h1.614v19.067h4.822v-19.067h1.616v32.004h-1.616v-11.332h-4.822v11.332h-1.614v-32.004z"></path>
<path d="M19.991 0.001l-4.003 20.673v11.332h-1.615v-11.332l-4.026-20.673h1.478l3.366 17.235 3.342-17.235h1.456z"></path>
<path d="M27.132 32.006h-4.845v-32.004h4.822c1.797 0 3.207 1.425 3.207 3.189v25.604c0.022 1.741-1.411 3.212-3.185 3.212zM23.902 1.607v28.793h3.207c0.863 0 1.614-0.724 1.614-1.606v-25.604c0-0.86-0.728-1.606-1.614-1.606h-3.207v0.022z"></path>
<path d="M40.914 32.006h-1.66l-2.843-11.332h-1.933v11.332h-1.614v-32.004h4.822c1.796 0 3.206 1.425 3.206 3.189v14.272c0 1.606-1.251 2.962-2.843 3.143l2.866 11.4zM34.478 19.068h3.206c0.864 0 1.615-0.724 1.615-1.606v-14.272c0-0.86-0.728-1.606-1.614-1.606h-3.207v17.483z"></path>
<path d="M45.781 20.674l-1.114 11.332h-1.456l3.23-32.004h3.207l3.206 32.004h-1.456l-1.115-11.332h-4.503zM48.351 1.607h-0.637l-1.751 17.461h4.139l-1.751-17.461z"></path>
</symbol>
</defs>
</svg>
